<?xml version="1.0" encoding="utf-8"?>
<!-- Generator: Adobe Illustrator 26.0.3, SVG Export Plug-In . SVG Version: 6.00 Build 0)  -->
<svg version="1.1" xmlns="http://www.w3.org/2000/svg" xmlns:xlink="http://www.w3.org/1999/xlink" x="0px" y="0px"
	 viewBox="0 0 90 90" style="enable-background:new 0 0 90 90;" xml:space="preserve">
<style type="text/css">
	.st0{opacity:1.000000e-02;fill:none;stroke:#FFFFFF;stroke-width:2.500000e-02;stroke-miterlimit:10;}
	.st1{fill:#DA291C;}
	.st2{fill:#FFFFFF;}
	.st3{fill:#D92C27;}
	.st4{fill:#FCFCFC;}
</style>
<g id="Layer_1">
	<g>
		<g>
			<circle class="st3" cx="45" cy="55" r="34.2"/>
			<g>
				<g>
					<path class="st2" d="M56.3,64.3c-0.9,0-2.1-0.3-3.5-1.2c-0.2-0.1-4.4-3-8.6-7.4c-2.4-2.5-4.9-5.8-6.6-8.6
						c-0.8-1.4-1.9-3.6-1.3-5.1c0.2-0.7,0.8-1.1,1.4-1.2c2-0.4,5,2.2,6.2,3.5c0.3,0.4,0.3,0.9-0.1,1.2c-0.4,0.3-0.9,0.3-1.2-0.1
						c-1.4-1.6-3.7-3.1-4.5-2.9c-0.1,0-0.1,0-0.1,0.1c-0.1,0.4-0.2,1.3,1.2,3.6c1.6,2.7,4,5.9,6.3,8.3c4.1,4.3,8.3,7.2,8.3,7.2
						c1.6,1,2.9,1.1,3.4,0.6c0.3-0.3,0.3-0.9-0.1-1.5c-0.3-0.6-0.6-1.1-0.9-1.4c-0.3-0.4-0.2-0.9,0.1-1.2c0.4-0.3,0.9-0.2,1.2,0.1
						c0.3,0.4,0.7,0.9,1,1.7c0.7,1.4,0.6,2.8-0.3,3.7C57.9,64,57.2,64.3,56.3,64.3z"/>
					<path class="st2" d="M27.3,73.9c-0.5,0-1-0.2-1.3-0.5c-0.5-0.5-0.6-1.3-0.3-2.2c0.1-0.2,7.2-20.6,9.7-27.4
						c1-2.7,1.6-2.8,1.9-2.9c0.3-0.1,0.6,0,0.9,0.3c0.3,0.4,0.3,0.9,0,1.2c0,0-0.1,0.1-0.1,0.1c-0.2,0.4-0.7,1.5-0.9,1.9
						c-2.5,6.8-9.6,27.2-9.7,27.4c-0.1,0.1-0.1,0.3-0.1,0.3c0.1,0,0.2,0,0.3-0.1c0.2-0.1,22-6.9,29.6-9.8c0.5-0.2,1,0.1,1.1,0.5
						c0.2,0.5-0.1,1-0.5,1.1c-7.7,2.9-29.5,9.7-29.7,9.8C27.9,73.9,27.6,73.9,27.3,73.9z"/>
					<g>
						<path class="st2" d="M38.8,60.1c-1.1,0-2.2-0.4-3-1.1c-1.9-1.7-2.1-4.6-0.4-6.5v0c1.7-1.9,4.6-2.1,6.5-0.4
							c1.9,1.7,2.1,4.6,0.4,6.5C41.4,59.6,40.1,60.1,38.8,60.1z M36.7,53.7c-1,1.2-0.9,3,0.3,4c1.2,1,3,0.9,4-0.3c1-1.2,0.9-3-0.2-4
							C39.6,52.4,37.8,52.5,36.7,53.7L36.7,53.7z"/>
						<path class="st2" d="M44.6,68.3c-0.1,0-0.1,0-0.2,0c-0.6-0.2-1.2-0.4-1.6-0.9c-0.8-0.7-1.3-1.7-1.3-2.7
							c-0.1-1.1,0.3-2.1,1-2.9c0.7-0.8,1.7-1.3,2.7-1.3c1.1-0.1,2.1,0.3,2.9,1c1.4,1.3,1.8,3.4,0.8,5c-0.3,0.4-0.8,0.6-1.2,0.3
							c-0.4-0.3-0.6-0.8-0.3-1.2c0.6-0.9,0.4-2.1-0.4-2.8c-0.4-0.4-1-0.6-1.6-0.5c-0.6,0-1.1,0.3-1.5,0.7c-0.4,0.4-0.6,1-0.5,1.6
							c0,0.6,0.3,1.1,0.7,1.5c0.3,0.2,0.6,0.4,0.9,0.5c0.5,0.1,0.8,0.6,0.6,1.1C45.4,68,45,68.3,44.6,68.3z"/>
						<path class="st2" d="M30.7,67.7c-0.8,0-1.6-0.3-2.3-0.9c-0.4-0.3-0.4-0.9-0.1-1.2c0.3-0.4,0.9-0.4,1.2-0.1
							c0.7,0.6,1.8,0.6,2.4-0.2c0.6-0.7,0.6-1.8-0.2-2.4c-0.4-0.4-1-0.5-1.5-0.4c-0.5,0.1-0.9-0.2-1-0.7c-0.1-0.5,0.2-0.9,0.7-1
							c1.1-0.2,2.2,0.1,3,0.8c1.4,1.3,1.6,3.5,0.3,4.9C32.7,67.3,31.7,67.7,30.7,67.7z"/>
					</g>
				</g>
				<path class="st2" d="M46.4,50.9c-0.3,0-0.5-0.1-0.7-0.4c-0.3-0.4-0.2-0.9,0.2-1.2c3.9-2.9,5.1-5.3,5.4-7.4
					c-0.2,0-0.5,0.1-0.7,0.1c-1.3,0.1-2.5-0.5-3-1.5c-0.5-1.1-0.4-2.2,0.3-3.1c0.7-0.8,1.9-1.2,3-0.9c1.1,0.3,1.8,1.2,2,2.4
					c0.3-0.4,0.6-0.9,0.8-1.5c0.2-0.6,0.8-2.6-0.5-6.3c-0.2-0.5,0.1-1,0.6-1.1c0.5-0.2,1,0.1,1.1,0.6c1,2.9,1.1,5.6,0.4,7.5
					c-0.5,1.5-1.4,2.5-2.3,3.1c0,2.8-1.3,5.9-6.1,9.6C46.7,50.8,46.5,50.9,46.4,50.9z M50,38.2c-0.3,0-0.7,0.1-0.8,0.4
					c-0.3,0.4-0.2,0.8,0,1.2c0.1,0.3,0.6,0.5,1.3,0.5c0.2,0,0.4,0,0.8-0.1c0-0.3-0.1-0.5-0.1-0.8c-0.1-0.6-0.4-0.9-0.8-1.1
					C50.2,38.2,50.1,38.2,50,38.2z"/>
				<path class="st2" d="M50.8,55.6c-0.2,0-0.5-0.1-0.6-0.3c-0.3-0.3-0.3-0.9,0-1.2c0.3-0.3,7.1-6.9,13.2-5.5c0.2,0,0.3,0.1,0.5,0.1
					c3-1.5,6.9-0.2,8.3,0.6c0.4,0.3,0.6,0.8,0.3,1.2c-0.3,0.4-0.8,0.6-1.2,0.3c-0.9-0.6-3-1.2-4.9-1c0.7,0.6,1,1.2,1.2,1.7
					c0.3,0.9,0,2-0.8,2.7c-0.7,0.7-1.8,1-2.7,0.7c-1.3-0.4-2.2-1.5-2.4-2.7c-0.1-0.7,0.1-1.4,0.5-2c-5-0.4-10.6,5.1-10.7,5.2
					C51.3,55.5,51.1,55.6,50.8,55.6z M64.1,50.5c-0.5,0.4-0.7,0.9-0.7,1.3c0.1,0.5,0.5,1,1.2,1.2c0.4,0.1,0.7-0.1,0.9-0.3
					c0.1-0.1,0.4-0.5,0.3-0.9C65.7,51.4,65,50.9,64.1,50.5z"/>
				<path class="st2" d="M53.9,48.6c-0.2,0-0.3,0-0.5-0.1c-0.4-0.3-0.5-0.8-0.3-1.2c0.1-0.2,0.2-0.4,0.4-0.7c0.4-0.8,1-2,2.4-1.9
					c0.1,0,0.3,0,0.4,0.1c1.5,0.2,2.1,0.1,2.3-0.9c0.2-0.8,0.6-1.4,1.2-1.6c0.9-0.4,2,0,2.6,0.3c0.2,0.1,0.3,0.1,0.4,0.2
					c0.5,0.1,0.8,0.6,0.7,1.1c-0.1,0.5-0.5,0.8-1,0.7c-0.3,0-0.5-0.2-0.8-0.3c-0.3-0.1-0.9-0.4-1.1-0.3c0,0-0.1,0.1-0.2,0.5
					c-0.7,2.7-3.2,2.3-4.3,2.2c-0.1,0-0.3,0-0.4,0c-0.2,0-0.3,0.3-0.6,0.9c-0.1,0.3-0.3,0.6-0.5,0.9C54.4,48.5,54.1,48.6,53.9,48.6z
					"/>
				<path class="st2" d="M58,40.9c-0.3,0-0.6-0.2-0.8-0.5c-0.2-0.4-0.1-1,0.4-1.2c1.6-0.8,1.7-2.2,1.7-2.2c0-0.5,0.5-0.8,1-0.8
					c0.5,0,0.8,0.5,0.8,1c0,0.1-0.2,2.3-2.7,3.6C58.3,40.8,58.2,40.9,58,40.9z"/>
				<path class="st2" d="M44.2,40c-0.1,0-0.1,0-0.2,0c-0.5-0.1-0.8-0.6-0.7-1c0.2-0.7,0-2-0.5-2.9c-0.2-0.4-0.1-1,0.3-1.2
					c0.4-0.2,1-0.1,1.2,0.3c0.8,1.3,0.9,3.1,0.7,4.1C44.9,39.8,44.6,40,44.2,40z"/>
				<path class="st2" d="M64.7,59.7c-0.3,0-0.6-0.1-0.7-0.4c0,0-0.7-0.9-2.5-0.9c0,0-0.1,0-0.1,0c-0.5,0-0.9-0.4-0.9-0.9
					c0-0.5,0.4-0.9,0.9-0.9c2.9,0,4,1.6,4.1,1.7c0.3,0.4,0.2,1-0.2,1.2C65.1,59.6,64.9,59.7,64.7,59.7z"/>
			</g>
		</g>
		<rect class="st0" width="90" height="90"/>
	</g>
</g>
<g id="Layer_2">
</g>
</svg>
