<?xml version="1.0" encoding="utf-8"?>
<!-- Generator: Adobe Illustrator 26.0.3, SVG Export Plug-In . SVG Version: 6.00 Build 0)  -->
<svg version="1.1" xmlns="http://www.w3.org/2000/svg" xmlns:xlink="http://www.w3.org/1999/xlink" x="0px" y="0px"
	 viewBox="0 0 90 90" style="enable-background:new 0 0 90 90;" xml:space="preserve">
<style type="text/css">
	.st0{opacity:1.000000e-02;fill:none;stroke:#FFFFFF;stroke-width:2.500000e-02;stroke-miterlimit:10;}
	.st1{fill:#DA291C;}
	.st2{fill:#FFFFFF;}
	.st3{fill:#D92C27;}
	.st4{fill:#FCFCFC;}
</style>
<g id="Layer_1">
	<g>
		<rect class="st0" width="90" height="90"/>
		<g>
			<circle class="st1" cx="45.6" cy="55.1" r="34.2"/>
			<g id="Layer_2_00000055696186403228971140000015435502782478790812_">
				<g id="Layer_1-2_00000124145099833630707240000004031829537454776738_">
					<path class="st2" d="M64.4,41.5H27.3c-0.3,0-0.6,0.3-0.6,0.6v33.4c0,0.3,0.3,0.6,0.6,0.6c0,0,0,0,0,0h37.1
						c0.3,0,0.6-0.3,0.6-0.6c0,0,0,0,0,0V42.1C65,41.7,64.7,41.5,64.4,41.5z M63.8,42.7v4H27.9v-4H63.8z M63.8,69.7H27.9V47.9h35.9
						V69.7z M27.9,74.8v-3.9h35.9v3.9H27.9z"/>
					<path class="st2" d="M34.9,66.6h21.9c0.3,0,0.6-0.3,0.6-0.6c0,0,0,0,0,0V54.5c0-0.3-0.3-0.6-0.6-0.6c0,0,0,0,0,0H34.9
						c-0.3,0-0.6,0.3-0.6,0.6V66C34.3,66.3,34.5,66.6,34.9,66.6z M35.5,55.1h20.7v10.3H35.5V55.1z"/>
					<path class="st2" d="M37.9,51.2h15.8c0.3,0,0.6-0.3,0.6-0.6c0-0.3-0.3-0.6-0.6-0.6H37.9c-0.3,0-0.6,0.3-0.6,0.6
						C37.3,50.9,37.6,51.2,37.9,51.2z"/>
					<path class="st2" d="M56.7,45.6c0.6,0,1-0.5,1-1c0-0.6-0.5-1-1-1c-0.6,0-1,0.5-1,1C55.6,45.2,56.1,45.6,56.7,45.6L56.7,45.6z"
						/>
					<path class="st2" d="M60.9,45.6c0.6,0,1-0.5,1-1s-0.5-1-1-1c-0.6,0-1,0.5-1,1v0C59.9,45.2,60.4,45.6,60.9,45.6z"/>
					<path class="st2" d="M30.1,45.6c0.6,0,1-0.5,1-1c0-0.6-0.5-1-1-1s-1,0.5-1,1C29.1,45.2,29.5,45.6,30.1,45.6L30.1,45.6z"/>
					<circle class="st2" cx="34.4" cy="44.6" r="1"/>
				</g>
			</g>
			<path class="st2" d="M49.7,38.6c-0.3,0-0.6-0.2-0.7-0.5c-0.1-0.4,0.1-0.8,0.5-1c0.1,0,1.6-0.6,1.6-2.1c0-1.1-0.4-1.5-1.5-2.2
				c-2.2-1.6-2.4-3.2-2.2-4.3c0.3-1.9,2.3-3,2.7-3.2c0.4-0.2,0.8,0,1,0.3c0.2,0.4,0,0.8-0.3,1c-0.6,0.3-1.7,1.1-1.9,2.1
				c-0.2,0.9,0.4,1.8,1.6,2.7c1.2,0.9,2.1,1.7,2.1,3.5c0,2.5-2.5,3.5-2.6,3.5C49.9,38.6,49.8,38.6,49.7,38.6z"/>
			<path class="st2" d="M41.5,38.5c-0.3,0-0.6-0.2-0.7-0.4c-0.2-0.4,0-0.8,0.3-1c0,0,0.1,0,0.2-0.1c0.5-0.2,0.7-0.4,0.7-0.7
				c0-0.3-0.1-0.7-1.4-1.7c-0.8-0.6-1.2-1.6-1.1-2.6c0.1-1.5,1-2.5,2.6-3.1c0.4-0.1,0.8,0.1,1,0.5c0.1,0.4-0.1,0.8-0.5,1
				C41.1,30.8,41,31.7,41,32c0,0.4,0,0.9,0.5,1.2c1.2,0.9,2,1.8,2.1,3c0,1-0.7,1.8-1.8,2.2C41.7,38.5,41.6,38.5,41.5,38.5z"/>
		</g>
	</g>
</g>
<g id="Layer_2">
</g>
</svg>
