<svg xmlns="http://www.w3.org/2000/svg" viewBox="0 0 90.03 90.03"><defs><style>.cls-1{fill:#d92c27;}.cls-2{fill:#fff;}.cls-3{fill:none;stroke:#fff;stroke-miterlimit:10;stroke-width:0.03px;opacity:0.01;}</style></defs><g id="Layer_2" data-name="Layer 2"><g id="Layer_1-2" data-name="Layer 1"><circle class="cls-1" cx="45.01" cy="55.05" r="34.2"/><path class="cls-2" d="M45.61,62.17l-1.48-.44A2.38,2.38,0,0,1,43,61.12a1.45,1.45,0,0,1-.29-1,1.68,1.68,0,0,1,.43-1.25,1.75,1.75,0,0,1,1-.48h1.23a1.41,1.41,0,0,1,.86.42,1.58,1.58,0,0,1,.36.72.86.86,0,0,0,.87.64h0a.92.92,0,0,0,.67-.33.88.88,0,0,0,.17-.75,3.24,3.24,0,0,0-.81-1.57,3.31,3.31,0,0,0-2-1v-.72a.89.89,0,0,0-1.77,0v.8a3.29,3.29,0,0,0-1.8,1A3.71,3.71,0,0,0,41,60.26a3.3,3.3,0,0,0,.65,2.11,4.09,4.09,0,0,0,2,1.24l1.75.52h0a2.48,2.48,0,0,1,1.21.69A1.89,1.89,0,0,1,47,66a1.72,1.72,0,0,1-.47,1.3,2,2,0,0,1-1.12.52l-1.21,0A2.08,2.08,0,0,1,43,67.17a2.35,2.35,0,0,1-.46-1.1.9.9,0,0,0-.92-.74h-.06a.88.88,0,0,0-.62.32.81.81,0,0,0-.2.65,3.91,3.91,0,0,0,.91,2.17,3.73,3.73,0,0,0,2,1.14v.86a.89.89,0,0,0,1.77,0v-.78a3.54,3.54,0,0,0,2.34-1.07,3.73,3.73,0,0,0,1-2.7A3.52,3.52,0,0,0,48,63.54,5,5,0,0,0,45.61,62.17Z"/><path class="cls-2" d="M62,41H55.55a6.25,6.25,0,0,0,.74-1l.15-.31a5.13,5.13,0,0,0-.25-4.92,1.57,1.57,0,0,0-.13-.2,1.33,1.33,0,0,0-.14-.2l-.13-.18h0a5.78,5.78,0,0,0-3.6-2.08,6.76,6.76,0,0,0-1-.09h-.36a5.75,5.75,0,0,0-4.93,3.21l-1.14,2.39-1.13-2.38c0-.07-.18-.35-.21-.4l-.23-.37h0L42.85,34c0-.05-.26-.3-.26-.3l0,0-.13-.13-.35-.3,0,0-.17-.12,0,0h0L41.67,33c-.05,0-.44-.27-.57-.33A5.93,5.93,0,0,0,38.69,32h-.36a5.92,5.92,0,0,0-4.6,2.16v0h0l-.13.18-.07.09-.07.1-.11.18h0a5.13,5.13,0,0,0-.25,4.92l.11.23,0,0v0A5.5,5.5,0,0,0,34,41H27.53a2.4,2.4,0,0,0-2.4,2.4V51a2.39,2.39,0,0,0,2.31,2.39V72.58A2.56,2.56,0,0,0,30,75.14H59.51a2.56,2.56,0,0,0,2.56-2.56V53.34A2.39,2.39,0,0,0,64.38,51V43.4A2.4,2.4,0,0,0,62,41Zm-27-5.3h0l.06-.11.05-.06v0l0,0a.76.76,0,0,1,.08-.11h0a4,4,0,0,1,3.13-1.46h.25a4,4,0,0,1,1.66.45,3.3,3.3,0,0,1,.51.31,4.56,4.56,0,0,1,.93,1l.15.25a1,1,0,0,0,.09.17l2,4.19a.95.95,0,0,0,1.71,0l2-4.19a3.89,3.89,0,0,1,3.34-2.14h.24a4,4,0,0,1,.7.06,3.91,3.91,0,0,1,2.44,1.41h0l.17.24.07.1v0h0a3.25,3.25,0,0,1,.16,3.14l-.09.2a3.68,3.68,0,0,1-1.77,1.6,4.29,4.29,0,0,1-1.42.35H37.89a3.9,3.9,0,0,1-3-1.92l-.1-.21A3.3,3.3,0,0,1,34.94,35.7Zm7.29,15.73V42.89h5.11v8.54h-.47v0H42.64v0Zm-14.7,0A.52.52,0,0,1,27,51V43.4a.52.52,0,0,1,.52-.52H40.12v8.57H27.53ZM60.18,72.58a.67.67,0,0,1-.67.67H30a.67.67,0,0,1-.67-.67V53.35H60.18ZM62.49,51a.51.51,0,0,1-.51.51H49.45V42.89H62a.51.51,0,0,1,.51.52Z"/><rect class="cls-3" x="0.01" y="0.01" width="90" height="90"/></g></g></svg>