<?xml version="1.0" encoding="utf-8"?>
<!-- Generator: Adobe Illustrator 26.0.3, SVG Export Plug-In . SVG Version: 6.00 Build 0)  -->
<svg version="1.1" xmlns="http://www.w3.org/2000/svg" xmlns:xlink="http://www.w3.org/1999/xlink" x="0px" y="0px"
	 viewBox="0 0 90 90" style="enable-background:new 0 0 90 90;" xml:space="preserve">
<style type="text/css">
	.st0{opacity:1.000000e-02;fill:none;stroke:#FFFFFF;stroke-width:2.500000e-02;stroke-miterlimit:10;}
	.st1{fill:#DA291C;}
	.st2{fill:#FFFFFF;}
	.st3{fill:#D92C27;}
	.st4{fill:#FCFCFC;}
</style>
<g id="Layer_1">
	<g>
		<g>
			<circle class="st1" cx="45.6" cy="55.1" r="34.2"/>
			<g>
				<path class="st2" d="M29.3,76.9c-0.6,0-1.2-0.1-1.6-0.3c-0.8-0.4-1.3-1.1-1.4-1.9c0-0.7,0.2-2,2.2-3.3c1.9-1.2,4-1.7,6.3-1.8
					c-0.1-0.8-0.3-1.8-0.8-2.8l1.4-0.6c0.5,1.2,0.8,2.3,0.9,3.4c2.4,0.1,5,0.5,7.7,1c1.6,0.3,3.3,0.5,5,0.8c5.3,0.7,7.9-0.9,8.9-2
					c1-1,1.5-2.2,1.4-3.4l1.5-0.1c0.1,1.7-0.5,3.4-1.9,4.7c-2.2,2.1-5.8,3-10.2,2.4c-1.8-0.2-3.4-0.5-5.1-0.8
					c-2.7-0.4-5.3-0.9-7.6-0.9c-0.3,1.6-1.1,3-2.6,4C32,76.4,30.5,76.9,29.3,76.9z M34.7,71.1c-2,0.1-3.9,0.5-5.4,1.5
					c-1.2,0.8-1.5,1.5-1.5,1.9c0,0.3,0.3,0.5,0.5,0.6c0.9,0.4,2.6,0.2,4.5-1.2C33.9,73.2,34.5,72.3,34.7,71.1z"/>
				<path class="st2" d="M46.4,67.5c-3.6,0-7.3-0.4-10.1-1.3c-4.1-1.2-4.8-2.9-4.6-4v0c0-0.3,0.2-0.5,0.3-0.8l0.1-0.2
					c3.1-6.3,12.6-25.5,12.6-25.5c0.4-0.8,1-1.2,1.6-1.2c0.7,0,1.3,0.4,1.6,1.2C48.1,36,57.6,55,60.7,61.4l0,0.1
					c0.1,0.2,0.3,0.5,0.3,0.8c0.2,0.9-0.2,2.7-4.6,4C53.7,67.1,50.1,67.5,46.4,67.5z M33.2,62.5c-0.1,0.6,1,1.5,3.6,2.3
					c5.3,1.6,14,1.6,19.3,0c2.5-0.8,3.6-1.7,3.5-2.3c0-0.1-0.1-0.3-0.2-0.3L59.3,62c-3.1-6.4-12.6-25.3-12.7-25.5
					c-0.1-0.3-0.3-0.4-0.3-0.4c0,0-0.1,0.1-0.2,0.4c0,0-9.5,19.2-12.6,25.5c-0.1,0.1-0.1,0.2-0.1,0.3C33.3,62.4,33.2,62.4,33.2,62.5
					z"/>
				<path class="st2" d="M49.9,63.1c-2.3,0-4.2-1.9-4.2-4.2s1.9-4.2,4.2-4.2c2.3,0,4.2,1.9,4.2,4.2S52.3,63.1,49.9,63.1z M49.9,56.3
					c-1.5,0-2.6,1.2-2.6,2.6c0,1.5,1.2,2.6,2.6,2.6c1.5,0,2.6-1.2,2.6-2.6C52.6,57.5,51.4,56.3,49.9,56.3z"/>
				<path class="st2" d="M39.8,56.3c-1.8,0-3.3-1.3-3.6-3l1.5-0.3c0.2,1,1,1.7,2,1.7c1.1,0,2.1-0.9,2.1-2.1c0-1.1-0.9-2.1-2.1-2.1
					c-0.3,0-0.6,0.1-0.9,0.2l-0.7-1.4c0.5-0.3,1.1-0.4,1.6-0.4c2,0,3.6,1.6,3.6,3.6C43.4,54.7,41.8,56.3,39.8,56.3z"/>
				<path class="st2" d="M46.4,36.1C46.4,36.1,46.4,36.1,46.4,36.1c-0.4,0-0.7-0.3-0.8-0.7c0-0.2-0.4-3.8-4.3-5.3
					c-0.4-0.2-0.6-0.6-0.4-1c0.2-0.4,0.6-0.6,1-0.4c2.6,1,4,2.8,4.6,4.3c0.6-1.2,1.5-2.6,2.8-3.4c0.4-0.2,0.8-0.1,1.1,0.3
					c0.2,0.4,0.1,0.8-0.3,1.1c-2.1,1.2-2.9,4.6-2.9,4.6C47.1,35.8,46.7,36.1,46.4,36.1z"/>
				<path class="st2" d="M50,47.1c-1.7,0-3.2-1.4-3.2-3.2c0-1.7,1.4-3.2,3.2-3.2v1.5c-0.9,0-1.6,0.7-1.6,1.6c0,0.9,0.7,1.6,1.6,1.6
					c0.5,0,1-0.2,1.3-0.7l1.2,0.9C51.9,46.6,51,47.1,50,47.1z"/>
			</g>
		</g>
		<rect class="st0" width="90" height="90"/>
	</g>
</g>
<g id="Layer_2">
</g>
</svg>
