<?xml version="1.0" encoding="utf-8"?>
<!-- Generator: Adobe Illustrator 26.0.3, SVG Export Plug-In . SVG Version: 6.00 Build 0)  -->
<svg version="1.1" xmlns="http://www.w3.org/2000/svg" xmlns:xlink="http://www.w3.org/1999/xlink" x="0px" y="0px"
	 viewBox="0 0 90 90" style="enable-background:new 0 0 90 90;" xml:space="preserve">
<style type="text/css">
	.st0{opacity:1.000000e-02;fill:none;stroke:#FFFFFF;stroke-width:2.500000e-02;stroke-miterlimit:10;}
	.st1{fill:#DA291C;}
	.st2{fill:#FFFFFF;}
	.st3{fill:#D92C27;}
	.st4{fill:#FCFCFC;}
</style>
<g id="Layer_1">
	<g>
		<g>
			<circle class="st1" cx="45.6" cy="55.1" r="34.2"/>
			<g>
				<path class="st4" d="M45.4,58.2c-0.5,0-1.1-0.1-1.7-0.2c-4-0.8-6.9-4.5-6.8-8.6c0-0.4,0.2-0.8,0.5-1c0.3-0.2,0.7-0.4,1.5-0.2
					l13.4,2.7l6.8-15.7c0.8-1.9,3.1-2.8,5-2c0.9,0.4,1.7,1.1,2,2.1c0.4,0.9,0.4,2-0.1,2.9c-0.2,0.4-0.6,0.6-1,0.4
					c-0.4-0.2-0.6-0.6-0.4-1c0.2-0.6,0.3-1.2,0-1.7c-0.2-0.6-0.6-1-1.2-1.2c-1.1-0.5-2.5,0-3,1.2l-7.1,16.3c0,0,0,0,0,0l-0.3,0.8
					C52,56.2,48.9,58.2,45.4,58.2z M38.5,49.7c0,3.3,2.3,6.3,5.5,6.9c3.4,0.6,6.5-1.1,7.7-4.2l-13.1-2.6
					C38.6,49.7,38.5,49.7,38.5,49.7z"/>
				<path class="st4" d="M43.5,69.4c-9.1,0-18.2-1.9-18.2-5.6c0-1.6,1.8-3,5.3-4c0.4-0.1,0.8,0.1,1,0.5c0.1,0.4-0.1,0.8-0.5,1
					c-3.1,0.9-4.2,1.9-4.2,2.5c0,1.6,6.5,4,16.7,4c9.1,0,15.3-1.8,16.5-3.5c0.3-0.3,0.7-0.4,1.1-0.2c0.3,0.3,0.4,0.7,0.2,1.1
					C59.5,67.7,52.1,69.4,43.5,69.4z"/>
				<path class="st4" d="M53,65.5c-0.3,0-0.7-0.2-0.7-0.6c-0.1-0.4,0.1-0.8,0.6-0.9c1.8-0.5,2.4-0.9,2.6-1.1
					c-0.5-0.7-4.5-1.8-11.2-1.7c-4.2,0.1-8.1,0.6-10.1,1.5c-0.4,0.2-0.8,0-1-0.4c-0.2-0.4,0-0.8,0.4-1c2.2-0.9,6.2-1.5,10.7-1.6
					c0.5,0,12.7-0.2,12.8,3.2c0,1.1-1.2,2-3.8,2.6C53.2,65.5,53.1,65.5,53,65.5z"/>
				<path class="st4" d="M43.3,73.8c-13.1,0-23.3-4.1-23.3-9.3c0-4.9,8.8-8.8,20.9-9.3l0.1,1.5c-10.7,0.4-19.4,3.9-19.4,7.7
					c0,3.7,8.8,7.8,21.8,7.8s21.8-4,21.8-7.8c0-3.3-6.6-6.5-15.7-7.4l0.2-1.5c10.2,1.1,17.1,4.7,17.1,9
					C66.6,69.7,56.4,73.8,43.3,73.8z"/>
			</g>
		</g>
		<rect class="st0" width="90" height="90"/>
	</g>
</g>
<g id="Layer_2">
</g>
</svg>
