<?xml version="1.0" encoding="utf-8"?>
<!-- Generator: Adobe Illustrator 26.0.3, SVG Export Plug-In . SVG Version: 6.00 Build 0)  -->
<svg version="1.1" xmlns="http://www.w3.org/2000/svg" xmlns:xlink="http://www.w3.org/1999/xlink" x="0px" y="0px"
	 viewBox="0 0 90 90" style="enable-background:new 0 0 90 90;" xml:space="preserve">
<style type="text/css">
	.st0{opacity:1.000000e-02;fill:none;stroke:#FFFFFF;stroke-width:2.500000e-02;stroke-miterlimit:10;}
	.st1{fill:#DA291C;}
	.st2{fill:#FFFFFF;}
	.st3{fill:#D92C27;}
	.st4{fill:#FCFCFC;}
</style>
<g id="Layer_1">
	<g>
		<g>
			<circle class="st1" cx="45" cy="55" r="34.2"/>
			<path class="st2" d="M60.2,61H36.7c-0.4,0-0.8-0.3-0.9-0.7l-4.3-20.4h-2.7c-0.5,0-0.9-0.4-0.9-0.9s0.4-0.9,0.9-0.9h3.4
				c0.4,0,0.8,0.3,0.9,0.7l0.7,3.2h28.3c0.3,0,0.5,0.1,0.7,0.3c0.2,0.2,0.2,0.4,0.2,0.7l-1.9,17.2C61,60.7,60.7,61,60.2,61z
				 M37.4,59.3h22l1.7-15.5h-27L37.4,59.3z"/>
			<path class="st2" d="M57.1,49.6H39c-0.5,0-0.9-0.4-0.9-0.9s0.4-0.9,0.9-0.9h18.1c0.5,0,0.9,0.4,0.9,0.9S57.6,49.6,57.1,49.6z"/>
			<path class="st2" d="M57.2,54.9H40.6c-0.5,0-0.9-0.4-0.9-0.9c0-0.5,0.4-0.9,0.9-0.9h16.6c0.5,0,0.9,0.4,0.9,0.9
				C58.1,54.5,57.7,54.9,57.2,54.9z"/>
			<g>
				<path class="st2" d="M28.4,47.8h-6.9c-0.5,0-0.9-0.4-0.9-0.9S21,46,21.5,46h6.9c0.5,0,0.9,0.4,0.9,0.9S28.9,47.8,28.4,47.8z"/>
				<path class="st2" d="M30.7,54.9h-6.2c-0.5,0-0.9-0.4-0.9-0.9c0-0.5,0.4-0.9,0.9-0.9h6.2c0.5,0,0.9,0.4,0.9,0.9
					C31.6,54.5,31.2,54.9,30.7,54.9z"/>
				<path class="st2" d="M27.8,62h-4.2c-0.5,0-0.9-0.4-0.9-0.9s0.4-0.9,0.9-0.9h4.2c0.5,0,0.9,0.4,0.9,0.9S28.3,62,27.8,62z"/>
			</g>
			<path class="st2" d="M57,65.8H36.7c-0.5,0-0.9-0.4-0.9-0.9v-4.8c0-0.5,0.4-0.9,0.9-0.9s0.9,0.4,0.9,0.9V64H57
				c0.5,0,0.9,0.4,0.9,0.9C57.9,65.4,57.5,65.8,57,65.8z"/>
			<path class="st2" d="M37.6,70.9c-1.9,0-3.4-1.5-3.4-3.4s1.5-3.4,3.4-3.4c1.9,0,3.4,1.5,3.4,3.4S39.4,70.9,37.6,70.9z M37.6,65.8
				c-0.9,0-1.7,0.7-1.7,1.7c0,0.9,0.7,1.7,1.7,1.7s1.7-0.7,1.7-1.7C39.2,66.5,38.5,65.8,37.6,65.8z"/>
			<path class="st2" d="M57,70.9c-1.9,0-3.4-1.5-3.4-3.4S55.1,64,57,64c1.9,0,3.4,1.5,3.4,3.4S58.9,70.9,57,70.9z M57,65.8
				c-0.9,0-1.7,0.7-1.7,1.7c0,0.9,0.7,1.7,1.7,1.7s1.7-0.7,1.7-1.7C58.6,66.5,57.9,65.8,57,65.8z"/>
		</g>
		<rect class="st0" width="90" height="90"/>
	</g>
</g>
<g id="Layer_2">
</g>
</svg>
