<svg xmlns="http://www.w3.org/2000/svg" xmlns:xlink="http://www.w3.org/1999/xlink" width="432" zoomAndPan="magnify" viewBox="0 0 324 86.249997" height="115" preserveAspectRatio="xMidYMid meet" version="1.0"><defs><g/><clipPath id="0792659713"><path d="M 127 0 L 322.601562 0 L 322.601562 85.507812 L 127 85.507812 Z M 127 0 " clip-rule="nonzero"/></clipPath></defs><g fill="#ffffff" fill-opacity="1"><g transform="translate(9.14098, 65.740065)"><g><path d="M 34.78125 -53.734375 C 39.957031 -53.734375 44.039062 -52.566406 47.03125 -50.234375 C 50.03125 -47.910156 51.53125 -44.492188 51.53125 -39.984375 C 51.53125 -36.421875 50.742188 -32.757812 49.171875 -29 C 47.609375 -25.25 45.066406 -22.421875 41.546875 -20.515625 C 38.035156 -18.617188 34.09375 -17.71875 29.71875 -17.8125 L 21.375 -17.8125 L 18.53125 0 L 4.5625 0 L 13.046875 -53.734375 Z M 25.234375 -42.46875 L 23.15625 -29.078125 L 26.578125 -29.078125 C 30.523438 -29.078125 33.195312 -29.789062 34.59375 -31.21875 C 36 -32.644531 36.703125 -34.78125 36.703125 -37.625 C 36.703125 -39.382812 36.117188 -40.628906 34.953125 -41.359375 C 33.785156 -42.097656 31.921875 -42.46875 29.359375 -42.46875 Z M 25.234375 -42.46875 "/></g></g></g><g fill="#ffffff" fill-opacity="1"><g transform="translate(48.684309, 65.740065)"><g><path d="M 27.015625 -53.734375 L 18.53125 0 L 4.5625 0 L 13.046875 -53.734375 Z M 27.015625 -53.734375 "/></g></g></g><g fill="#ffffff" fill-opacity="1"><g transform="translate(64.215898, 65.740065)"><g><path d="M 58.078125 -53.734375 L 26.15625 -11.828125 L 48.671875 -11.828125 L 46.828125 0 L 0.78125 0 L 32.859375 -41.90625 L 11.765625 -41.90625 L 13.609375 -53.734375 Z M 58.078125 -53.734375 "/></g></g></g><g fill="#ffffff" fill-opacity="1"><g transform="translate(107.036791, 65.740065)"><g><path d="M 58.078125 -53.734375 L 26.15625 -11.828125 L 48.671875 -11.828125 L 46.828125 0 L 0.78125 0 L 32.859375 -41.90625 L 11.765625 -41.90625 L 13.609375 -53.734375 Z M 58.078125 -53.734375 "/></g></g></g><g fill="#ffffff" fill-opacity="1"><g transform="translate(149.857685, 65.740065)"><g><path d="M 44.109375 -53.734375 L 55.875 0 L 40.984375 0 L 38.984375 -9.328125 L 19.734375 -9.328125 L 14.53125 0 L -0.28125 0 L 28.859375 -53.734375 Z M 25.296875 -20.03125 L 36.921875 -20.03125 L 33.921875 -37.125 L 33.78125 -37.125 Z M 25.296875 -20.03125 "/></g></g></g><g clip-path="url(#0792659713)"><path stroke-linecap="butt" transform="matrix(1.109341, 0, 0, 1.109341, 163.79573, -7.126307)" fill="none" stroke-linejoin="miter" d="M 17.233951 31.054941 L 22.628482 48.900555 L 33.730933 31.054941 L 40.678327 31.054941 L 46.132719 48.900555 L 57.252776 31.054941 L 70.158099 31.054941 L 47.73488 63.999607 L 40.160706 63.999607 L 34.889419 45.949761 L 23.85035 63.999607 L 16.262091 63.999607 L 4.251162 31.054941 Z M 90.570692 31.054941 L 102.250625 31.054941 L 97.060326 63.999607 L 85.362787 63.999607 L 85.943791 60.344566 L 85.817026 60.344566 C 84.616285 61.883345 83.035251 63.059437 81.080966 63.872842 C 79.137245 64.689769 77.140706 65.098232 75.091347 65.098232 C 70.982067 65.098232 67.612246 63.728472 64.978363 60.988952 C 62.34448 58.238868 61.024017 54.770452 61.024017 50.576663 C 61.024017 47.146981 61.893762 43.840542 63.629731 40.650304 C 65.365699 37.463587 67.739011 34.886044 70.749666 32.921195 C 73.770885 30.945783 77.035069 29.956316 80.54926 29.956316 C 82.514109 29.956316 84.34515 30.322525 86.038864 31.054941 C 87.729056 31.776794 89.067125 32.847249 90.053071 34.269828 Z M 79.654867 54.93595 C 82.17607 54.93595 84.281768 54.073248 85.975482 52.347843 C 87.669195 50.611875 88.514291 48.544911 88.514291 46.139908 C 88.514291 44.425067 87.933288 42.991925 86.774802 41.844002 C 85.623358 40.681995 84.021197 40.100991 81.961275 40.100991 C 79.609091 40.100991 77.563254 40.970736 75.827285 42.706705 C 74.094838 44.439152 73.225093 46.551892 73.225093 49.041405 C 73.225093 50.837234 73.781448 52.270376 74.887116 53.33731 C 76.006868 54.404244 77.594945 54.93595 79.654867 54.93595 Z M 111.874158 31.054941 L 118.053924 47.94278 L 129.297224 31.054941 L 142.579318 31.054941 L 108.345881 80.450812 L 95.253933 80.450812 L 109.821278 59.49947 L 98.391353 31.054941 Z M 111.874158 31.054941 " stroke="#ffffff" stroke-width="6.504209" stroke-opacity="1" stroke-miterlimit="4"/></g><g fill="#da291c" fill-opacity="1"><g transform="translate(163.813064, 63.87153)"><g><path d="M 19.09375 -36.546875 L 25.078125 -16.75 L 37.40625 -36.546875 L 45.09375 -36.546875 L 51.15625 -16.75 L 63.484375 -36.546875 L 77.8125 -36.546875 L 52.9375 0 L 44.53125 0 L 38.6875 -20.015625 L 26.4375 0 L 18.03125 0 L 4.703125 -36.546875 Z M 19.09375 -36.546875 "/></g></g></g><g fill="#da291c" fill-opacity="1"><g transform="translate(227.214729, 63.87153)"><g><path d="M 37.046875 -36.546875 L 50.015625 -36.546875 L 44.25 0 L 31.28125 0 L 31.921875 -4.0625 L 31.78125 -4.0625 C 30.445312 -2.351562 28.695312 -1.046875 26.53125 -0.140625 C 24.375 0.765625 22.15625 1.21875 19.875 1.21875 C 15.3125 1.21875 11.570312 -0.300781 8.65625 -3.34375 C 5.738281 -6.382812 4.28125 -10.234375 4.28125 -14.890625 C 4.28125 -18.691406 5.238281 -22.359375 7.15625 -25.890625 C 9.082031 -29.429688 11.71875 -32.296875 15.0625 -34.484375 C 18.414062 -36.671875 22.039062 -37.765625 25.9375 -37.765625 C 28.125 -37.765625 30.15625 -37.359375 32.03125 -36.546875 C 33.90625 -35.742188 35.390625 -34.554688 36.484375 -32.984375 Z M 24.9375 -10.046875 C 27.738281 -10.046875 30.078125 -11.003906 31.953125 -12.921875 C 33.828125 -14.847656 34.765625 -17.144531 34.765625 -19.8125 C 34.765625 -21.707031 34.125 -23.296875 32.84375 -24.578125 C 31.5625 -25.859375 29.78125 -26.5 27.5 -26.5 C 24.882812 -26.5 22.613281 -25.535156 20.6875 -23.609375 C 18.769531 -21.691406 17.8125 -19.351562 17.8125 -16.59375 C 17.8125 -14.601562 18.425781 -13.015625 19.65625 -11.828125 C 20.894531 -10.640625 22.65625 -10.046875 24.9375 -10.046875 Z M 24.9375 -10.046875 "/></g></g></g><g fill="#da291c" fill-opacity="1"><g transform="translate(268.246875, 63.87153)"><g><path d="M 19.671875 -36.546875 L 26.5 -17.8125 L 38.96875 -36.546875 L 53.71875 -36.546875 L 15.75 18.234375 L 1.21875 18.234375 L 17.390625 -4.984375 L 4.703125 -36.546875 Z M 19.671875 -36.546875 "/></g></g></g></svg>