<svg xmlns="http://www.w3.org/2000/svg" xmlns:xlink="http://www.w3.org/1999/xlink" width="432" zoomAndPan="magnify" viewBox="0 0 324 82.499998" height="110" preserveAspectRatio="xMidYMid meet" version="1.0"><defs><g/><clipPath id="902cc933e1"><path d="M 261 21 L 323.023438 21 L 323.023438 82.003906 L 261 82.003906 Z M 261 21 " clip-rule="nonzero"/></clipPath><clipPath id="f3f51d596e"><path d="M 268 24 L 323.023438 24 L 323.023438 82.003906 L 268 82.003906 Z M 268 24 " clip-rule="nonzero"/></clipPath></defs><g fill="#da291c" fill-opacity="1"><g transform="translate(-2.949671, 65.029865)"><g><path d="M 36.25 -56.015625 C 41.65625 -56.015625 45.914062 -54.800781 49.03125 -52.375 C 52.15625 -49.945312 53.71875 -46.382812 53.71875 -41.6875 C 53.71875 -37.96875 52.898438 -34.148438 51.265625 -30.234375 C 49.628906 -26.328125 46.976562 -23.378906 43.3125 -21.390625 C 39.644531 -19.410156 35.535156 -18.472656 30.984375 -18.578125 L 22.296875 -18.578125 L 19.3125 0 L 4.75 0 L 13.59375 -56.015625 Z M 26.296875 -44.28125 L 24.140625 -30.3125 L 27.71875 -30.3125 C 31.820312 -30.3125 34.601562 -31.050781 36.0625 -32.53125 C 37.53125 -34.019531 38.265625 -36.253906 38.265625 -39.234375 C 38.265625 -41.066406 37.65625 -42.363281 36.4375 -43.125 C 35.226562 -43.894531 33.285156 -44.28125 30.609375 -44.28125 Z M 26.296875 -44.28125 "/></g></g></g><g fill="#da291c" fill-opacity="1"><g transform="translate(38.276636, 65.029865)"><g><path d="M 28.15625 -56.015625 L 19.3125 0 L 4.75 0 L 13.59375 -56.015625 Z M 28.15625 -56.015625 "/></g></g></g><g fill="#da291c" fill-opacity="1"><g transform="translate(54.469259, 65.029865)"><g><path d="M 60.546875 -56.015625 L 27.265625 -12.328125 L 50.75 -12.328125 L 48.8125 0 L 0.8125 0 L 34.25 -43.6875 L 12.265625 -43.6875 L 14.1875 -56.015625 Z M 60.546875 -56.015625 "/></g></g></g><g fill="#da291c" fill-opacity="1"><g transform="translate(99.112633, 65.029865)"><g><path d="M 60.546875 -56.015625 L 27.265625 -12.328125 L 50.75 -12.328125 L 48.8125 0 L 0.8125 0 L 34.25 -43.6875 L 12.265625 -43.6875 L 14.1875 -56.015625 Z M 60.546875 -56.015625 "/></g></g></g><g fill="#da291c" fill-opacity="1"><g transform="translate(143.756007, 65.029865)"><g><path d="M 45.984375 -56.015625 L 58.25 0 L 42.71875 0 L 40.640625 -9.734375 L 20.578125 -9.734375 L 15.15625 0 L -0.296875 0 L 30.09375 -56.015625 Z M 26.375 -20.875 L 38.484375 -20.875 L 35.359375 -38.703125 L 35.21875 -38.703125 Z M 26.375 -20.875 "/></g></g></g><g fill="#ffffff" fill-opacity="1"><g transform="translate(158.305288, 63.081809)"><g><path d="M 23.507812 -39.195312 L 29.75 -18.546875 L 26.148438 -17.457031 L 22.957031 -19.445312 L 36.910156 -41.871094 L 49.804688 -41.871094 L 56.933594 -18.558594 L 53.335938 -17.457031 L 50.144531 -19.445312 L 64.097656 -41.871094 L 88.226562 -41.871094 L 57.183594 3.761719 L 43.609375 3.761719 L 36.726562 -19.820312 L 40.335938 -20.875 L 43.546875 -18.910156 L 29.667969 3.761719 L 16.160156 3.761719 L -0.472656 -41.871094 L 22.703125 -41.871094 Z M 16.308594 -37.019531 L 19.910156 -38.109375 L 19.910156 -34.347656 L 4.902344 -34.347656 L 4.902344 -38.109375 L 8.4375 -39.398438 L 22.328125 -1.289062 L 18.792969 0 L 18.792969 -3.761719 L 27.558594 -3.761719 L 27.558594 0 L 24.351562 -1.964844 L 41.566406 -30.085938 L 50.039062 -1.054688 L 46.429688 0 L 46.429688 -3.761719 L 55.195312 -3.761719 L 55.195312 0 L 52.085938 -2.117188 L 78.011719 -40.222656 L 81.121094 -38.109375 L 81.121094 -34.347656 L 66.1875 -34.347656 L 66.1875 -38.109375 L 69.382812 -36.121094 L 52.160156 -8.445312 L 43.425781 -37.007812 L 47.023438 -38.109375 L 47.023438 -34.347656 L 39 -34.347656 L 39 -38.109375 L 42.191406 -36.121094 L 24.953125 -8.414062 Z M 16.308594 -37.019531 "/></g></g></g><g fill="#ffffff" fill-opacity="1"><g transform="translate(224.405354, 63.081809)"><g><path d="M 38.628906 -41.871094 L 56.550781 -41.871094 L 49.34375 3.761719 L 28.210938 3.761719 L 29.566406 -4.820312 L 33.28125 -4.234375 L 33.28125 -0.472656 L 33.132812 -0.472656 L 33.132812 -4.234375 L 36.101562 -1.925781 C 34.308594 0.378906 31.980469 2.128906 29.121094 3.320312 C 26.402344 4.457031 23.605469 5.023438 20.726562 5.023438 C 14.902344 5.023438 10.097656 3.054688 6.3125 -0.886719 C 2.570312 -4.78125 0.695312 -9.664062 0.695312 -15.527344 C 0.695312 -20.125 1.851562 -24.550781 4.160156 -28.800781 C 6.46875 -33.046875 9.632812 -36.480469 13.65625 -39.105469 C 17.773438 -41.789062 22.234375 -43.132812 27.039062 -43.132812 C 29.835938 -43.132812 32.449219 -42.609375 34.878906 -41.5625 C 37.492188 -40.4375 39.570312 -38.765625 41.121094 -36.542969 L 38.035156 -34.394531 L 34.320312 -34.988281 L 35.421875 -41.871094 Z M 38.628906 -34.347656 L 38.628906 -38.109375 L 42.34375 -37.515625 L 40.277344 -24.597656 L 34.949219 -32.242188 C 34.21875 -33.292969 33.203125 -34.09375 31.90625 -34.652344 C 30.421875 -35.292969 28.800781 -35.609375 27.039062 -35.609375 C 23.726562 -35.609375 20.632812 -34.675781 17.765625 -32.804688 C 14.804688 -30.871094 12.472656 -28.339844 10.769531 -25.207031 C 9.070312 -22.078125 8.21875 -18.851562 8.21875 -15.527344 C 8.21875 -11.683594 9.390625 -8.539062 11.738281 -6.097656 C 14.042969 -3.699219 17.039062 -2.5 20.726562 -2.5 C 22.601562 -2.5 24.433594 -2.871094 26.222656 -3.621094 C 27.867188 -4.304688 29.179688 -5.28125 30.164062 -6.542969 L 31.292969 -7.996094 L 37.679688 -7.996094 L 36.328125 0.585938 L 32.613281 0 L 32.613281 -3.761719 L 46.132812 -3.761719 L 46.132812 0 L 42.417969 -0.585938 L 48.433594 -38.695312 L 52.148438 -38.109375 L 52.148438 -34.347656 Z M 26 -14.234375 C 27.863281 -14.234375 29.40625 -14.859375 30.625 -16.109375 C 31.867188 -17.382812 32.488281 -18.898438 32.488281 -20.652344 C 32.488281 -21.59375 32.1875 -22.367188 31.585938 -22.96875 C 30.984375 -23.570312 30.011719 -23.871094 28.675781 -23.871094 C 26.988281 -23.871094 25.511719 -23.238281 24.238281 -21.964844 C 22.96875 -20.695312 22.332031 -19.140625 22.332031 -17.308594 C 22.332031 -16.296875 22.589844 -15.539062 23.109375 -15.042969 C 23.667969 -14.503906 24.632812 -14.234375 26 -14.234375 Z M 26 -6.714844 C 22.613281 -6.714844 19.910156 -7.683594 17.894531 -9.621094 C 15.839844 -11.597656 14.808594 -14.160156 14.808594 -17.308594 C 14.808594 -21.21875 16.179688 -24.546875 18.921875 -27.285156 C 21.660156 -30.027344 24.910156 -31.394531 28.675781 -31.394531 C 32.089844 -31.394531 34.832031 -30.359375 36.90625 -28.289062 C 38.976562 -26.214844 40.011719 -23.671875 40.011719 -20.652344 C 40.011719 -16.859375 38.679688 -13.59375 36.007812 -10.855469 C 33.316406 -8.09375 29.980469 -6.714844 26 -6.714844 Z M 26 -6.714844 "/></g></g></g><g clip-path="url(#902cc933e1)"><g fill="#ffffff" fill-opacity="1"><g transform="translate(267.183846, 63.081809)"><g><path d="M 24.035156 -39.398438 L 31.167969 -19.859375 L 27.632812 -18.570312 L 24.503906 -20.65625 L 38.617188 -41.871094 L 63.195312 -41.871094 L 18.386719 22.777344 L -5.9375 22.777344 L 15.039062 -7.347656 L 18.125 -5.199219 L 14.636719 -3.796875 L -0.660156 -41.871094 L 23.132812 -41.871094 Z M 16.96875 -36.820312 L 20.503906 -38.109375 L 20.503906 -34.347656 L 4.902344 -34.347656 L 4.902344 -38.109375 L 8.394531 -39.511719 L 22.371094 -4.71875 L 4.347656 21.167969 L 1.261719 19.015625 L 1.261719 15.257812 L 16.417969 15.257812 L 16.417969 19.015625 L 13.324219 16.875 L 52.921875 -40.25 L 56.011719 -38.109375 L 56.011719 -34.347656 L 40.632812 -34.347656 L 40.632812 -38.109375 L 43.765625 -36.023438 L 26.648438 -10.300781 Z M 16.96875 -36.820312 "/></g></g></g></g><g fill="#da291c" fill-opacity="1"><g transform="translate(158.305288, 63.081809)"><g><path d="M 19.90625 -38.109375 L 26.140625 -17.453125 L 39 -38.109375 L 47.015625 -38.109375 L 53.328125 -17.453125 L 66.1875 -38.109375 L 81.109375 -38.109375 L 55.1875 0 L 46.421875 0 L 40.328125 -20.875 L 27.5625 0 L 18.796875 0 L 4.90625 -38.109375 Z M 19.90625 -38.109375 "/></g></g></g><g fill="#da291c" fill-opacity="1"><g transform="translate(224.405354, 63.081809)"><g><path d="M 38.625 -38.109375 L 52.140625 -38.109375 L 46.125 0 L 32.609375 0 L 33.28125 -4.234375 L 33.125 -4.234375 C 31.738281 -2.453125 29.921875 -1.085938 27.671875 -0.140625 C 25.421875 0.796875 23.101562 1.265625 20.71875 1.265625 C 15.96875 1.265625 12.066406 -0.316406 9.015625 -3.484375 C 5.972656 -6.660156 4.453125 -10.675781 4.453125 -15.53125 C 4.453125 -19.488281 5.453125 -23.3125 7.453125 -27 C 9.460938 -30.6875 12.210938 -33.671875 15.703125 -35.953125 C 19.203125 -38.234375 22.976562 -39.375 27.03125 -39.375 C 29.3125 -39.375 31.429688 -38.953125 33.390625 -38.109375 C 35.347656 -37.265625 36.894531 -36.023438 38.03125 -34.390625 Z M 26 -10.46875 C 28.914062 -10.46875 31.351562 -11.46875 33.3125 -13.46875 C 35.269531 -15.476562 36.25 -17.875 36.25 -20.65625 C 36.25 -22.632812 35.578125 -24.289062 34.234375 -25.625 C 32.898438 -26.957031 31.046875 -27.625 28.671875 -27.625 C 25.953125 -27.625 23.585938 -26.617188 21.578125 -24.609375 C 19.566406 -22.609375 18.5625 -20.175781 18.5625 -17.3125 C 18.5625 -15.226562 19.207031 -13.566406 20.5 -12.328125 C 21.789062 -11.085938 23.625 -10.46875 26 -10.46875 Z M 26 -10.46875 "/></g></g></g><g clip-path="url(#f3f51d596e)"><g fill="#da291c" fill-opacity="1"><g transform="translate(267.183846, 63.081809)"><g><path d="M 20.5 -38.109375 L 27.625 -18.5625 L 40.625 -38.109375 L 56.015625 -38.109375 L 16.421875 19.015625 L 1.265625 19.015625 L 18.125 -5.203125 L 4.90625 -38.109375 Z M 20.5 -38.109375 "/></g></g></g></g></svg>